<svg xmlns="http://www.w3.org/2000/svg" xmlns:xlink="http://www.w3.org/1999/xlink" width="190.377" height="85.028" viewBox="0 0 190.377 85.028">
  <defs>
    <clipPath id="clip-path">
      <rect id="Rectángulo_87" data-name="Rectángulo 87" width="190.377" height="85.028" fill="#fafafa"/>
    </clipPath>
  </defs>
  <g id="Grupo_160" data-name="Grupo 160" clip-path="url(#clip-path)">
    <path id="Trazado_184" data-name="Trazado 184" d="M19.861,77.111a1.039,1.039,0,0,1,1.018,1.134c0,1.094-1.055,1.212-1.563,1.212-1.643,0-3.283-.7-3.559-2.775-.04-.236-.079-.39-.2-.39-.039,0-.078.039-.158.117a8.133,8.133,0,0,1-6.526,3.285C3.794,79.695,0,76.022,0,70.352c0-5.472,3.789-9.266,8.872-9.267A7.855,7.855,0,0,1,15.049,63.9c.2.272.314.469.392.469s.117-.2.117-.7c0-2,.039-4.77.039-7.038,0-2.659,0-3.324-1.567-3.324a4.868,4.868,0,0,0-.625.04h-.078a1,1,0,0,1-1.095-1.015,1.161,1.161,0,0,1,1.213-1.174c.39,0,.939-.039,1.29-.039,2.463,0,3.128,1.563,3.128,3.243v.158c-.037,3.283-.075,9.616-.074,14.972v5.318c0,1.876.666,2.345,1.526,2.344.2,0,.352-.039.508-.039Zm-4.3-6.762c0-4.379-2.895-7.233-6.609-7.231-3.949,0-6.645,2.737-6.644,7.233,0,4.457,2.737,7.194,6.646,7.192,3.675,0,6.608-2.854,6.607-7.194" transform="translate(0 5.235)" fill="#fafafa"/>
    <path id="Trazado_185" data-name="Trazado 185" d="M34.574,75.911c-.039-.118-.078-.2-.154-.2a.209.209,0,0,0-.158.118,7.22,7.22,0,0,1-5.942,3.013c-3.948,0-6.334-2.7-6.334-5.4,0-1.955,1.289-3.949,4.183-4.848A62.542,62.542,0,0,1,33.4,67c.47-.078.625-.2.625-.471,0-.2.04-.43.039-.625,0-2.151-.9-3.83-4.065-3.83a6.157,6.157,0,0,0-4.575,1.877,1.089,1.089,0,0,1-.821.391,1.061,1.061,0,0,1-1.095-1.056c0-1.486,3.284-3.166,6.644-3.167,3.637,0,6.1,1.6,6.1,5.979a10.494,10.494,0,0,1-.04,1.1c-.118,1.29-.2,3.32-.194,4.808,0,2.854.274,3.791,1.838,4.339a.993.993,0,0,1,.665.977,1.057,1.057,0,0,1-1.055,1.094,3.328,3.328,0,0,1-2.895-2.5m-.588-5.981v-.508c0-.313-.117-.431-.39-.431h-.118c-6.137.98-9.383,1.762-9.381,4.5,0,1.641,1.564,3.283,4.183,3.283,2,0,5.708-.822,5.707-6.843" transform="translate(2.251 6.157)" fill="#fafafa"/>
    <path id="Trazado_186" data-name="Trazado 186" d="M45.829,63.125c-.625,0-.625.078-.625.547,0,1.487-.117,5.512-.117,8.406,0,3.05.079,5.123,3.129,5.121.351,0,.7-.04,1.094-.078h.158a.968.968,0,0,1,.939,1.015c0,1.016-.938,1.213-2.5,1.214-5,0-5-4.26-5-5.981,0-2.5.074-7.271.074-9.187v-.625c0-.39-.116-.43-.39-.43H40.278a1.038,1.038,0,1,1,0-2.073h2.268c.353,0,.429-.039.428-.389,0-.158.039-2.034.039-3.4v-.977a1.136,1.136,0,1,1,2.269.076c0,1.134-.078,4.261-.078,4.261,0,.43.079.43.588.43h3.479a1.006,1.006,0,0,1,1.095,1.016,1.016,1.016,0,0,1-1.095,1.056Z" transform="translate(4.012 5.648)" fill="#fafafa"/>
    <path id="Trazado_187" data-name="Trazado 187" d="M65.353,75.9c-.04-.118-.078-.2-.155-.2a.208.208,0,0,0-.155.118A7.225,7.225,0,0,1,59.1,78.839c-3.947,0-6.334-2.7-6.334-5.4,0-1.955,1.289-3.949,4.183-4.848a62.6,62.6,0,0,1,7.232-1.6c.47-.078.626-.2.626-.471,0-.2.039-.43.039-.625,0-2.151-.9-3.831-4.065-3.831A6.164,6.164,0,0,0,56.2,63.944a1.089,1.089,0,0,1-.821.39,1.06,1.06,0,0,1-1.095-1.055c0-1.486,3.284-3.166,6.645-3.168,3.636,0,6.1,1.6,6.1,5.981A10.774,10.774,0,0,1,67,67.186c-.119,1.291-.2,3.322-.2,4.809,0,2.854.273,3.791,1.837,4.338a.994.994,0,0,1,.666.978A1.057,1.057,0,0,1,68.248,78.4a3.33,3.33,0,0,1-2.895-2.5m-.586-5.981v-.508c0-.313-.118-.431-.39-.431h-.119c-6.136.979-9.381,1.762-9.38,4.5,0,1.641,1.563,3.283,4.181,3.283,2,0,5.709-.822,5.708-6.843" transform="translate(5.403 6.156)" fill="#fafafa"/>
    <path id="Trazado_188" data-name="Trazado 188" d="M82.831,61.122c-.039.821-.039,1.369-.039,1.955,0,.548,0,1.135.039,2.034v.078a.961.961,0,0,1-.977.937,1,1,0,0,1-1.1-1.015c0-3.128-3.478-3.126-3.713-3.126-2.034,0-3.167,1.214-3.167,2.5a3.013,3.013,0,0,0,1.917,2.58c1.094.508,2.97,1.289,4.183,1.914,2.423,1.251,3.481,3.089,3.481,4.847,0,2.15-1.72,5.043-6.175,5.045a6.131,6.131,0,0,1-3.91-1.289.494.494,0,0,0-.275-.158c-.077,0-.118.078-.118.2,0,.977-.467,1.095-.937,1.095a.942.942,0,0,1-1.015-.938V77.7c.037-.86.075-1.446.075-2.033s-.037-1.173-.077-2.111V73.48a1.027,1.027,0,0,1,1.095-1.018,1,1,0,0,1,1.055,1.055c0,.274-.078.469-.078.743,0,1.29,1.955,2.58,4.184,2.58,1.992,0,3.909-1.134,3.909-3.012,0-2.073-1.722-3.008-6.256-4.885a4.726,4.726,0,0,1-3.168-4.34c0-2.267,1.835-4.494,5.316-4.5a6.291,6.291,0,0,1,3.441,1.054.292.292,0,0,0,.235.077c.2,0,.158-.351.2-.467a.88.88,0,0,1,.9-.626.913.913,0,0,1,.979.939Z" transform="translate(7.273 6.156)" fill="#fafafa"/>
    <path id="Trazado_189" data-name="Trazado 189" d="M103.331,79.241c-1.015-.039-1.952-.077-2.813-.077s-1.72.04-2.62.078H97.82a1,1,0,0,1-1.056-1.016.916.916,0,0,1,1.054-1.016c1.018,0,1.018-.236,1.018-.274a.293.293,0,0,0-.078-.157c-2.073-2.032-5.279-5-6.491-6.252a1.4,1.4,0,0,0-1.173-.47c-.586,0-.625.351-.625,2.384,0,.938,0,2.188.04,4.066a.6.6,0,0,0,.666.664,10,10,0,0,0,1.094-.039h.039a1.058,1.058,0,1,1,0,2.111h-.04c-1.016-.039-2.033-.077-3.049-.076-.977,0-1.916.039-2.814.078a1.011,1.011,0,0,1-1.174-1.016,1.077,1.077,0,0,1,1.133-1.1H86.4c.467,0,.547.04,1.172.04a.617.617,0,0,0,.665-.665c.076-4.105.115-9.383.114-14.152,0-2.737-.041-5.357-.042-7.469,0-1.094-.312-1.524-1.29-1.563h-.9a1.066,1.066,0,0,1-1.095-1.094c0-1.016.7-1.133,2.07-1.133,3.207,0,3.481,2.071,3.481,2.93,0,5.042-.075,13.331-.075,13.331a.586.586,0,0,0,.665.625c.429,0,.586-.039,6.762-4.3.117-.079.157-.158.157-.2,0-.078-.078-.118-.274-.118-.7,0-1.641,0-1.641-.937a.994.994,0,0,1,1.055-1.018h.078c.977.039,1.838.039,2.737.039.86,0,1.8,0,2.813-.041a.953.953,0,0,1,1.134,1.018,1.029,1.029,0,0,1-1.095,1.016h-.04c-.547,0-.234-.039-.782-.039a1.859,1.859,0,0,0-.976.352c-2.307,1.564-5.317,3.6-7.232,4.849-.235.155-.313.273-.313.391,0,.272,1.016,1.212,8.094,7.7a1.446,1.446,0,0,0,1.133.469c.158,0,.353-.039.586-.039a.965.965,0,0,1,1.095,1.015,1.043,1.043,0,0,1-1.094,1.1Z" transform="translate(8.707 5.233)" fill="#fafafa"/>
    <path id="Trazado_190" data-name="Trazado 190" d="M114.189,78.822c-4.965,0-8.837-3.712-8.838-9.224,0-5.708,4.1-9.462,8.716-9.462,5.355,0,7.7,4.18,7.7,6.408,0,1.446-.859,2.541-2.853,2.62-.9.04-2.229.04-3.675.04-2.932,0-6.255-.037-7.115-.037-.39,0-.469.155-.469.7,0,4.263,2.816,6.881,6.568,6.879a7,7,0,0,0,5.669-2.582,1.111,1.111,0,0,1,.783-.351,1.194,1.194,0,0,1,1.172,1.133c0,.9-2.735,3.871-7.661,3.872m-.083-16.733c-3.753,0-6.137,3.365-6.136,4.811,0,.391.353.391,4.886.391,2.034,0,4.223,0,5.318-.041.938-.04,1.29-.471,1.29-1.1,0-1.134-1.369-4.066-5.358-4.066" transform="translate(10.788 6.159)" fill="#fafafa"/>
    <path id="Trazado_191" data-name="Trazado 191" d="M129.62,63.107c-.625,0-.625.078-.625.547,0,1.485-.117,5.512-.117,8.4,0,3.049.079,5.122,3.129,5.122A10.889,10.889,0,0,0,133.1,77.1h.158a.968.968,0,0,1,.938,1.016c0,1.016-.937,1.213-2.5,1.213-5,0-5-4.26-5-5.981,0-2.5.075-7.273.075-9.187v-.625c0-.391-.116-.43-.39-.43h-2.306a1.038,1.038,0,1,1,0-2.073h2.268c.351,0,.429-.04.428-.39,0-.157.039-2.034.039-3.4v-.977a1.136,1.136,0,1,1,2.269.077c0,1.135-.078,4.262-.078,4.262,0,.43.079.43.588.43h3.479a1.038,1.038,0,1,1,0,2.073Z" transform="translate(12.593 5.646)" fill="#fafafa"/>
    <path id="Trazado_192" data-name="Trazado 192" d="M145.711,78.79c-6.021,0-9.189-4.572-9.191-9.225,0-5.472,3.868-9.579,8.795-9.58a9.008,9.008,0,0,1,4.417,1.172c.079.039.118.078.2.078.118,0,.158-.236.2-.429.04-.471.507-.666.937-.666a1.01,1.01,0,0,1,1.134.978V61.2c-.037.821-.037,1.408-.037,2.034,0,.586,0,1.212.037,2.11v.078a1.008,1.008,0,0,1-1.133.978,1.034,1.034,0,0,1-1.095-.938c-.04-.82.078-1.291-.39-1.838a5.141,5.141,0,0,0-3.989-1.6c-3.831,0-6.8,3.051-6.8,7.391,0,3.557,2.307,7.271,6.8,7.269a6.151,6.151,0,0,0,5-2.269,1.229,1.229,0,0,1,1.016-.585,1.252,1.252,0,0,1,1.25,1.212c0,1.133-2.93,3.753-7.152,3.755" transform="translate(13.98 6.143)" fill="#fafafa"/>
    <path id="Trazado_193" data-name="Trazado 193" d="M173.487,79.23c-1.018-.039-2.034-.078-3.051-.078-.976,0-1.914.04-2.813.079a1.01,1.01,0,0,1-1.173-1.018,1.076,1.076,0,0,1,1.133-1.094h.039c.508,0,.547.039,1.172.037a.605.605,0,0,0,.626-.664c0-1.291.04-2.776.039-4.222,0-2.033-.04-3.871-.079-4.614-.2-3.243-2.268-4.612-4.5-4.611-2.735,0-5.707,2.035-5.822,5.123,0,.742-.04,1.916-.04,3.322,0,1.447.041,3.168.041,5a.6.6,0,0,0,.665.665,9.732,9.732,0,0,0,1.095-.04,1.06,1.06,0,1,1,.04,2.112h-.039c-1.018-.04-2.073-.078-3.049-.078s-1.955.04-2.855.079a1.011,1.011,0,0,1-1.172-1.016,1.075,1.075,0,0,1,1.132-1.1h.039c.508,0,.626.04,1.251.04a.587.587,0,0,0,.625-.665c.04-3.168.078-8.094.076-12.785,0-3.324-.04-6.49-.041-8.836,0-1.015-.312-1.562-1.33-1.6a7.46,7.46,0,0,0-.86.04h-.04A1.067,1.067,0,0,1,153.5,52.22c0-.665.312-1.172,1.993-1.172a8.568,8.568,0,0,1,.977.076,2.728,2.728,0,0,1,2.659,2.971v2.229c0,3.167-.036,6.685-.036,7.232,0,.118.037.2.077.2s.078-.04.157-.117a7.321,7.321,0,0,1,5.785-2.661,6.192,6.192,0,0,1,6.531,6.254c.039,1.641.079,6.138.079,9.225,0,.43.2.7.665.7.586,0,.547-.039,1.1-.039h.039a1.058,1.058,0,1,1,0,2.111Z" transform="translate(15.719 5.228)" fill="#fafafa"/>
    <path id="Trazado_194" data-name="Trazado 194" d="M124.212,32.048,111.85,23.66V3.909A3.914,3.914,0,0,0,107.939,0H72.2a3.914,3.914,0,0,0-3.909,3.909v26a3.914,3.914,0,0,0,3.909,3.91h16.88l-6.367,6.408A.97.97,0,1,0,84.084,41.6l5.984-6.021L96.052,41.6a.97.97,0,0,0,1.376-1.367L91.06,33.822h16.879a3.914,3.914,0,0,0,3.91-3.91V26l11.273,7.65a.97.97,0,0,0,1.089-1.605m-14.3-9.7-6.632-4.5a.97.97,0,0,0-1.089,1.605l7.721,5.238V29.91a1.972,1.972,0,0,1-1.97,1.97H72.2a1.972,1.972,0,0,1-1.97-1.97v-26a1.973,1.973,0,0,1,1.97-1.97h35.743a1.973,1.973,0,0,1,1.97,1.97Z" transform="translate(6.993 0)" fill="#fafafa"/>
  </g>
</svg>
