<svg id="Grupo_305" data-name="Grupo 305" xmlns="http://www.w3.org/2000/svg" xmlns:xlink="http://www.w3.org/1999/xlink" width="189.623" height="63.171" viewBox="0 0 189.623 63.171">
  <defs>
    <clipPath id="clip-path">
      <rect id="Rectángulo_411" data-name="Rectángulo 411" width="189.623" height="63.171" fill="none"/>
    </clipPath>
  </defs>
  <g id="Grupo_304" data-name="Grupo 304" clip-path="url(#clip-path)">
    <path id="Trazado_322" data-name="Trazado 322" d="M1.206,72.578a3.02,3.02,0,0,1,3.051-3.051,3,3,0,0,1,3.1,3.051V84.939h4.1l7.416-13.833a3.238,3.238,0,0,1,2.63-1.578,2.9,2.9,0,0,1,3,3,4.2,4.2,0,0,1-.578,1.947L16.723,87.306l7.942,13.412a4.115,4.115,0,0,1,.684,1.946,2.947,2.947,0,0,1-3.1,2.946,3.237,3.237,0,0,1-2.63-1.578L11.621,90.2H7.36v12.361a3,3,0,0,1-3.1,3.051,3.02,3.02,0,0,1-3.051-3.051Z" transform="translate(-0.736 -42.438)" fill="#fff"/>
    <path id="Trazado_323" data-name="Trazado 323" d="M82.847,78.995c0-2.367-.947-4.419-4.734-4.419A10.988,10.988,0,0,0,74.9,75.1a12.707,12.707,0,0,1-3,.632,2.372,2.372,0,0,1-2.472-2.472c0-.842.474-1.578,1.684-2.262a19.372,19.372,0,0,1,7.522-1.473c8.679,0,10.309,5.365,10.309,9.468v8.994c0,3,.579,4.155.579,5.312a2.605,2.605,0,0,1-2.735,2.788A2.645,2.645,0,0,1,84.057,94.2l-.316-1.263A10.854,10.854,0,0,1,75.9,96.3c-5.1,0-8.31-3.313-8.31-7.837,0-4.892,3.892-7.679,10.308-7.679h4.945Zm0,5.943H78.113c-2.946,0-4.576,1.1-4.576,3.156,0,2,1.526,3.208,3.892,3.208a8.3,8.3,0,0,0,5.418-2.314Z" transform="translate(-41.258 -42.438)" fill="#fff"/>
    <path id="Trazado_324" data-name="Trazado 324" d="M136.873,90.724h3.734V75.155h-3.629a2.492,2.492,0,0,1-2.524-2.525,2.537,2.537,0,0,1,2.524-2.577h6a2.132,2.132,0,0,1,2,1.631l.316,1.368a18.056,18.056,0,0,1,9.836-3.524c1.736,0,3,.946,3.1,2.419l.526,5.944a2.594,2.594,0,0,1-5.154.578L153.073,75a16.414,16.414,0,0,0-6.364,2.682V90.724h4.629a2.525,2.525,0,1,1,0,5.049H136.873a2.537,2.537,0,0,1-2.525-2.577,2.449,2.449,0,0,1,2.525-2.472" transform="translate(-82.004 -42.438)" fill="#fff"/>
    <path id="Trazado_325" data-name="Trazado 325" d="M206.882,91.548h3.945V75.979h-3.84a2.492,2.492,0,0,1-2.524-2.525,2.537,2.537,0,0,1,2.524-2.577H214.4a2.537,2.537,0,0,1,2.525,2.577V91.548h4a2.525,2.525,0,0,1,0,5.049H206.882a2.525,2.525,0,1,1,0-5.049" transform="translate(-124.736 -43.262)" fill="#fff"/>
    <path id="Trazado_326" data-name="Trazado 326" d="M267.543,76.943c0,2.1,2.367,2.84,5.365,3.734,3.892,1.157,8.679,2.735,8.679,7.837,0,5.155-4.839,7.785-10.257,7.785a23.45,23.45,0,0,1-8.31-1.472c-1.21-.579-1.894-1.315-1.894-2.367a2.425,2.425,0,0,1,2.524-2.525,13.8,13.8,0,0,1,3.156.789,15.247,15.247,0,0,0,4.523.841c2.683,0,4.156-1.262,4.156-2.787,0-1.894-2.1-2.63-5.312-3.577-3.156-.894-8.731-2.472-8.731-7.942,0-5.155,4.891-7.732,9.625-7.732a20.609,20.609,0,0,1,7.837,1.631,2.82,2.82,0,0,1,1.841,2.472,2.231,2.231,0,0,1-2.315,2.314,10.538,10.538,0,0,1-2.84-.789,11.49,11.49,0,0,0-4.156-.842c-2.735,0-3.892,1.157-3.892,2.63" transform="translate(-159.387 -42.438)" fill="#fff"/>
    <path id="Trazado_327" data-name="Trazado 327" d="M325.785,77.732c0-2.578-.631-3.893-.631-5.05a2.661,2.661,0,0,1,2.735-2.893,2.582,2.582,0,0,1,2.788,1.894l.315,1.262a10.525,10.525,0,0,1,7.048-3.418,8.1,8.1,0,0,1,6.89,3.418,11.435,11.435,0,0,1,7.732-3.418c5.47,0,8.836,3.313,8.836,9.152V93.038a3.02,3.02,0,0,1-3.05,3.051,2.988,2.988,0,0,1-3.051-3.051V79.415c0-3.05-1.21-4.839-3.84-4.839a8.3,8.3,0,0,0-5.155,2.209,17.853,17.853,0,0,1,.263,3.681V93.038a3.051,3.051,0,1,1-6.1,0V79.415c0-3.05-1.1-4.839-3.84-4.839a8.2,8.2,0,0,0-4.839,2.261v16.2a3.051,3.051,0,1,1-6.1,0Z" transform="translate(-198.469 -42.438)" fill="#fff"/>
    <path id="Trazado_328" data-name="Trazado 328" d="M445.651,78.995c0-2.367-.947-4.419-4.734-4.419a10.988,10.988,0,0,0-3.209.526,12.706,12.706,0,0,1-3,.632,2.372,2.372,0,0,1-2.473-2.472c0-.842.474-1.578,1.684-2.262a19.372,19.372,0,0,1,7.522-1.473c8.679,0,10.309,5.365,10.309,9.468v8.994c0,3,.579,4.155.579,5.312a2.605,2.605,0,0,1-2.735,2.788,2.645,2.645,0,0,1-2.735-1.894l-.316-1.263a10.854,10.854,0,0,1-7.837,3.366c-5.1,0-8.31-3.313-8.31-7.837,0-4.892,3.892-7.679,10.308-7.679h4.945Zm0,5.943h-4.734c-2.946,0-4.576,1.1-4.576,3.156,0,2,1.526,3.208,3.892,3.208a8.3,8.3,0,0,0,5.418-2.314Z" transform="translate(-262.709 -42.438)" fill="#fff"/>
    <path id="Trazado_329" data-name="Trazado 329" d="M0,5.672a1.377,1.377,0,0,1,1.39-1.39H9.651a1.237,1.237,0,1,1,0,2.475H2.809V12.43H8.121a1.234,1.234,0,0,1,1.223,1.223,1.259,1.259,0,0,1-1.223,1.252H2.809v6.785A1.384,1.384,0,0,1,1.39,23.082,1.377,1.377,0,0,1,0,21.691Z" transform="translate(0 -2.614)" fill="#fff"/>
    <path id="Trazado_330" data-name="Trazado 330" d="M40.658,18.378a1.36,1.36,0,0,1,1.391-1.391,1.377,1.377,0,0,1,1.391,1.391v8.593a23.251,23.251,0,0,0,.277,2.531,1.2,1.2,0,0,1-1.251,1.335,1.23,1.23,0,0,1-1.252-.89l-.195-.779a5.948,5.948,0,0,1-4.144,1.78c-2.7,0-4.533-1.39-4.533-5.145V18.378a1.377,1.377,0,0,1,1.39-1.391,1.359,1.359,0,0,1,1.39,1.391V25.8c0,2.03.835,2.865,2.5,2.865A5.218,5.218,0,0,0,40.658,27.3Z" transform="translate(-19.742 -10.369)" fill="#fff"/>
    <path id="Trazado_331" data-name="Trazado 331" d="M70.8,20.679a22.966,22.966,0,0,0-.305-2.531,1.209,1.209,0,0,1,1.251-1.306,1.161,1.161,0,0,1,1.252.89l.195.751a6.148,6.148,0,0,1,3.948-1.78c2.865,0,4.728,1.39,4.728,5.144v7.425a1.378,1.378,0,0,1-1.391,1.391,1.361,1.361,0,0,1-1.391-1.391V21.846c0-2.03-.806-2.837-2.5-2.837a5.2,5.2,0,0,0-3,1.335v8.927a1.377,1.377,0,0,1-1.391,1.391,1.361,1.361,0,0,1-1.39-1.391Z" transform="translate(-43.028 -10.195)" fill="#fff"/>
    <path id="Trazado_332" data-name="Trazado 332" d="M116.816,1.961A1.36,1.36,0,0,1,118.207.57,1.377,1.377,0,0,1,119.6,1.961V16.95a21.216,21.216,0,0,0,.305,2.531,1.293,1.293,0,0,1-2.53.417l-.167-.752a5.954,5.954,0,0,1-3.949,1.78c-3.087,0-5.284-2.42-5.284-7.035,0-4.2,2-7.036,6.146-7.036a7.106,7.106,0,0,1,2.7.667Zm0,7.842a6,6,0,0,0-2.67-.64c-2.448,0-3.393,1.892-3.393,4.728,0,2.864.945,4.755,3.032,4.755a4.718,4.718,0,0,0,3.031-1.362Z" transform="translate(-65.905 -0.348)" fill="#fff"/>
    <path id="Trazado_333" data-name="Trazado 333" d="M153.7,21.569c0-1.418-.612-2.559-2.726-2.559a5.873,5.873,0,0,0-1.863.334,5.717,5.717,0,0,1-1.447.334,1.093,1.093,0,0,1-1.14-1.14c0-.445.279-.778.862-1.085a9.8,9.8,0,0,1,3.81-.751c4.256,0,5.284,2.587,5.284,4.867v5.117a20.752,20.752,0,0,0,.278,2.7,1.18,1.18,0,0,1-1.223,1.279,1.235,1.235,0,0,1-1.279-.89l-.167-.752a5.935,5.935,0,0,1-4.171,1.752c-2.67,0-4.366-1.668-4.366-4.06,0-2.531,2-4,5.312-4H153.7Zm0,3.087h-2.754c-1.724,0-2.67.667-2.67,1.891,0,1.2.862,1.947,2.281,1.947a4.857,4.857,0,0,0,3.143-1.363Z" transform="translate(-88.842 -10.195)" fill="#fff"/>
    <path id="Trazado_334" data-name="Trazado 334" d="M190.044,19.483a4.347,4.347,0,0,0-1.918-.473c-2.392,0-3.477,1.836-3.477,4.728,0,2.781,1.085,4.755,3.477,4.755a7.526,7.526,0,0,0,2.03-.362,7.525,7.525,0,0,1,1.474-.361,1.033,1.033,0,0,1,1.085,1.085,1.309,1.309,0,0,1-.89,1.168,10.323,10.323,0,0,1-3.7.75c-4.144,0-6.257-2.92-6.257-7.035,0-4.394,2.28-7.036,6.257-7.036a6.9,6.9,0,0,1,3.5.945,1.8,1.8,0,0,1,.919,1.614l.138,1.112c.083.974-.417,1.614-1.223,1.614a1.285,1.285,0,0,1-1.279-1.252Z" transform="translate(-111.01 -10.195)" fill="#fff"/>
    <path id="Trazado_335" data-name="Trazado 335" d="M216.92,28.623h2.252V19.752h-2.2a1.134,1.134,0,0,1-1.14-1.168,1.152,1.152,0,0,1,1.14-1.168h3.81a1.165,1.165,0,0,1,1.168,1.2V28.623h2.28a1.154,1.154,0,0,1,0,2.308H216.92a1.154,1.154,0,0,1,0-2.308" transform="translate(-131.709 -10.63)" fill="#fff"/>
    <path id="Trazado_336" data-name="Trazado 336" d="M221.846,4.52a1.808,1.808,0,1,1,1.807,1.807,1.8,1.8,0,0,1-1.807-1.807" transform="translate(-135.411 -1.656)" fill="#fff"/>
    <path id="Trazado_337" data-name="Trazado 337" d="M250.183,6.507c3.894,0,6.119,3.032,6.119,7.036,0,3.977-2.169,7.036-6.119,7.036-3.977,0-6.146-3.058-6.146-7.036,0-4,2.225-7.036,6.146-7.036m3.337,7.036c0-2.864-1.279-4.728-3.337-4.728s-3.337,1.864-3.337,4.728,1.279,4.755,3.337,4.755,3.337-1.891,3.337-4.755m-5.367-9.372a1.2,1.2,0,0,1,.445-.946L251.379.445a1.307,1.307,0,0,1,.89-.445,1.281,1.281,0,0,1,1.307,1.279,1.274,1.274,0,0,1-.556.946L250.1,4.783a1.3,1.3,0,0,1-.918.362,1.017,1.017,0,0,1-1.029-.973" transform="translate(-148.957)" fill="#fff"/>
    <path id="Trazado_338" data-name="Trazado 338" d="M283.545,20.679a22.912,22.912,0,0,0-.306-2.531,1.21,1.21,0,0,1,1.251-1.306,1.161,1.161,0,0,1,1.252.89l.195.751a6.148,6.148,0,0,1,3.948-1.78c2.865,0,4.728,1.39,4.728,5.144v7.425a1.377,1.377,0,0,1-1.391,1.391,1.361,1.361,0,0,1-1.391-1.391V21.846c0-2.03-.806-2.837-2.5-2.837a5.2,5.2,0,0,0-3,1.335v8.927a1.377,1.377,0,0,1-1.391,1.391,1.36,1.36,0,0,1-1.39-1.391Z" transform="translate(-172.885 -10.195)" fill="#fff"/>
  </g>
</svg>
