<svg xmlns="http://www.w3.org/2000/svg" xmlns:xlink="http://www.w3.org/1999/xlink" width="24.121" height="24.121" viewBox="0 0 24.121 24.121">
  <defs>
    <clipPath id="clip-path">
      <rect id="Rectángulo_90" data-name="Rectángulo 90" width="24.121" height="24.121" fill="none"/>
    </clipPath>
  </defs>
  <g id="Grupo_9" data-name="Grupo 9" transform="translate(0 0)">
    <g id="Grupo_166" data-name="Grupo 166" transform="translate(0 0)" clip-path="url(#clip-path)">
      <path id="Trazado_197" data-name="Trazado 197" d="M17.664,24.121H6.453A6.461,6.461,0,0,1,0,17.666V6.455A6.462,6.462,0,0,1,6.453,0h11.21a6.463,6.463,0,0,1,6.456,6.455V17.666a6.462,6.462,0,0,1-6.456,6.455M6.453,1.9A4.556,4.556,0,0,0,1.9,6.455V17.666a4.556,4.556,0,0,0,4.55,4.552h11.21a4.557,4.557,0,0,0,4.553-4.552V6.455A4.558,4.558,0,0,0,17.664,1.9Zm5.606,17.705a6.279,6.279,0,1,1,6.279-6.279,6.286,6.286,0,0,1-6.279,6.279m0-10.656a4.377,4.377,0,1,0,4.377,4.377,4.382,4.382,0,0,0-4.377-4.377m7.74-2.9A1.649,1.649,0,1,0,18.149,7.7,1.649,1.649,0,0,0,19.8,6.052" transform="translate(0 0)" fill="#fff"/>
    </g>
  </g>
</svg>
