<svg id="Grupo_1" data-name="Grupo 1" xmlns="http://www.w3.org/2000/svg" xmlns:xlink="http://www.w3.org/1999/xlink" width="206.582" height="33.026" viewBox="0 0 206.582 33.026">
  <defs>
    <clipPath id="clip-path">
      <rect id="Rectángulo_1" data-name="Rectángulo 1" width="206.582" height="33.026" fill="#fafafa"/>
    </clipPath>
  </defs>
  <g id="Grupo_1-2" data-name="Grupo 1" transform="translate(0 0)" clip-path="url(#clip-path)">
    <path id="Trazado_1" data-name="Trazado 1" d="M56.659,24.3a.821.821,0,0,1,.8.894c0,.864-.833.956-1.234.956a2.529,2.529,0,0,1-2.807-2.188c-.03-.185-.062-.307-.153-.307-.03,0-.062.03-.124.092A6.412,6.412,0,0,1,48,26.336c-4.008,0-7-2.9-7-7.367,0-4.315,2.989-7.306,7-7.307a6.194,6.194,0,0,1,4.871,2.22c.154.215.248.369.31.369s.092-.154.092-.555c0-1.573.029-3.761.029-5.549,0-2.1,0-2.621-1.234-2.621a3.777,3.777,0,0,0-.493.032h-.062a.793.793,0,0,1-.862-.8.915.915,0,0,1,.954-.925c.308,0,.741-.03,1.018-.03a2.242,2.242,0,0,1,2.465,2.557v.124c-.029,2.589-.059,7.583-.058,11.805v4.194c0,1.479.525,1.85,1.2,1.848.154,0,.278-.03.4-.03Zm-3.392-5.333c0-3.453-2.282-5.7-5.21-5.7-3.115,0-5.242,2.159-5.24,5.7,0,3.515,2.158,5.673,5.242,5.671,2.9,0,5.21-2.252,5.209-5.674" transform="translate(15.465 1.434)" fill="#fafafa"/>
    <path id="Trazado_2" data-name="Trazado 2" d="M64.8,21.937c-.03-.092-.061-.154-.123-.154a.163.163,0,0,0-.123.092A5.691,5.691,0,0,1,59.87,24.25c-3.114,0-5-2.126-5-4.253,0-1.542,1.016-3.115,3.3-3.825a49.872,49.872,0,0,1,5.7-1.264c.37-.062.493-.156.493-.37,0-.154.032-.339.03-.493,0-1.7-.709-3.02-3.2-3.02a4.856,4.856,0,0,0-3.607,1.481.861.861,0,0,1-.649.308.834.834,0,0,1-.862-.832c0-1.172,2.588-2.5,5.239-2.5,2.867,0,4.811,1.263,4.812,4.716a8.174,8.174,0,0,1-.032.864c-.092,1.016-.154,2.619-.153,3.791,0,2.25.216,2.99,1.449,3.421a.783.783,0,0,1,.525.77.834.834,0,0,1-.832.864A2.627,2.627,0,0,1,64.8,21.937m-.463-4.716v-.4c0-.248-.092-.34-.308-.34h-.092c-4.84.773-7.4,1.39-7.4,3.548,0,1.295,1.233,2.588,3.3,2.588,1.573,0,4.5-.647,4.5-5.395" transform="translate(20.7 3.577)" fill="#fafafa"/>
    <path id="Trazado_3" data-name="Trazado 3" d="M70.97,12.637c-.492,0-.492.062-.492.431,0,1.172-.092,4.346-.092,6.629,0,2.4.062,4.039,2.467,4.038.277,0,.556-.032.864-.062h.123a.766.766,0,0,1,.742.8c0,.8-.741.956-1.974.956-3.946,0-3.947-3.359-3.947-4.716,0-1.974.059-5.733.059-7.244v-.493c0-.308-.091-.339-.307-.339H66.593a.819.819,0,1,1,0-1.635h1.788c.278,0,.339-.03.337-.307,0-.124.032-1.6.032-2.683V7.243a.9.9,0,1,1,1.789.062c0,.894-.062,3.359-.062,3.359,0,.339.063.339.463.339h2.743a.819.819,0,1,1,0,1.635Z" transform="translate(24.793 2.395)" fill="#fafafa"/>
    <path id="Trazado_4" data-name="Trazado 4" d="M84.229,21.933c-.032-.092-.062-.153-.123-.153a.167.167,0,0,0-.124.092A5.689,5.689,0,0,1,79.3,24.246c-3.114,0-5-2.125-5-4.253,0-1.542,1.015-3.114,3.3-3.823a49.287,49.287,0,0,1,5.7-1.264c.37-.062.493-.156.493-.372,0-.153.032-.337.03-.493,0-1.694-.709-3.02-3.2-3.02A4.857,4.857,0,0,0,77.015,12.5a.864.864,0,0,1-.649.307.835.835,0,0,1-.864-.832c0-1.172,2.589-2.5,5.24-2.5,2.867,0,4.811,1.263,4.812,4.717a8.135,8.135,0,0,1-.032.862c-.092,1.018-.154,2.619-.153,3.791,0,2.25.215,2.99,1.449,3.421a.784.784,0,0,1,.525.771.834.834,0,0,1-.832.862,2.624,2.624,0,0,1-2.283-1.972m-.463-4.716v-.4c0-.247-.092-.34-.309-.34h-.092c-4.84.773-7.4,1.39-7.4,3.548,0,1.295,1.233,2.589,3.3,2.589,1.573,0,4.5-.649,4.5-5.4" transform="translate(28.028 3.576)" fill="#fafafa"/>
    <path id="Trazado_5" data-name="Trazado 5" d="M95.137,10.278c-.03.647-.03,1.08-.03,1.541,0,.432,0,.9.03,1.6v.062a.759.759,0,0,1-.77.74.792.792,0,0,1-.865-.8c0-2.465-2.742-2.465-2.928-2.465-1.6,0-2.5.957-2.5,1.975a2.375,2.375,0,0,0,1.512,2.033c.864.4,2.343,1.016,3.3,1.511A4.411,4.411,0,0,1,95.633,20.3c0,1.694-1.357,3.976-4.87,3.977a4.832,4.832,0,0,1-3.082-1.016.392.392,0,0,0-.216-.124c-.062,0-.094.062-.094.156,0,.77-.369.862-.74.862a.743.743,0,0,1-.8-.74v-.062c.03-.678.059-1.14.059-1.6s-.029-.924-.061-1.664v-.062a.81.81,0,0,1,.864-.8.791.791,0,0,1,.832.832c0,.216-.062.369-.062.585,0,1.018,1.541,2.034,3.3,2.034,1.573,0,3.084-.9,3.084-2.374,0-1.635-1.358-2.373-4.935-3.852a3.729,3.729,0,0,1-2.5-3.422c0-1.788,1.449-3.544,4.192-3.545a4.975,4.975,0,0,1,2.714.83.224.224,0,0,0,.183.062c.156,0,.124-.277.156-.369a.694.694,0,0,1,.707-.494.721.721,0,0,1,.773.741Z" transform="translate(32.376 3.575)" fill="#fafafa"/>
    <path id="Trazado_6" data-name="Trazado 6" d="M109.1,25.983c-.8-.03-1.541-.061-2.219-.061s-1.357.03-2.066.061h-.062a.783.783,0,0,1-.833-.8.723.723,0,0,1,.832-.8c.8,0,.8-.185.8-.216a.236.236,0,0,0-.062-.123c-1.635-1.6-4.165-3.944-5.119-4.93a1.1,1.1,0,0,0-.925-.37c-.461,0-.492.277-.492,1.881,0,.74,0,1.726.03,3.2a.472.472,0,0,0,.525.525,7.586,7.586,0,0,0,.864-.032h.032a.835.835,0,1,1,0,1.665h-.032c-.8-.03-1.6-.061-2.4-.061-.771,0-1.511.03-2.219.062a.8.8,0,0,1-.925-.8.847.847,0,0,1,.892-.864h.032c.369,0,.431.03.924.03a.485.485,0,0,0,.523-.523c.061-3.238.092-7.4.091-11.158,0-2.159-.033-4.224-.034-5.889,0-.864-.245-1.2-1.016-1.233H95.53a.842.842,0,0,1-.862-.864c0-.8.555-.894,1.633-.894,2.527,0,2.743,1.633,2.743,2.311,0,3.976-.058,10.512-.058,10.512a.462.462,0,0,0,.523.493c.339,0,.463-.032,5.333-3.392.094-.062.124-.124.124-.154,0-.062-.062-.092-.216-.092-.556,0-1.3,0-1.3-.74a.786.786,0,0,1,.833-.8h.062c.77.032,1.449.032,2.158.032.676,0,1.417,0,2.219-.033a.752.752,0,0,1,.894.8.811.811,0,0,1-.862.8h-.032c-.431,0-.183-.032-.617-.032a1.482,1.482,0,0,0-.77.278c-1.819,1.234-4.192,2.837-5.7,3.825-.186.123-.248.215-.248.308,0,.215.8.956,6.383,6.071a1.138,1.138,0,0,0,.894.369c.123,0,.278-.03.461-.03a.762.762,0,0,1,.864.8.822.822,0,0,1-.862.864Z" transform="translate(35.71 1.43)" fill="#fafafa"/>
    <path id="Trazado_7" data-name="Trazado 7" d="M114.463,24.23a6.889,6.889,0,0,1-6.969-7.274c0-4.5,3.235-7.46,6.872-7.462a5.746,5.746,0,0,1,6.076,5.054c0,1.14-.679,2-2.25,2.067-.711.03-1.757.03-2.9.03-2.311,0-4.932-.03-5.611-.03-.306,0-.368.124-.368.556,0,3.36,2.219,5.425,5.178,5.423a5.515,5.515,0,0,0,4.469-2.036.876.876,0,0,1,.618-.277.942.942,0,0,1,.924.894c0,.708-2.158,3.052-6.042,3.053m-.065-13.2c-2.958,0-4.84,2.653-4.838,3.793,0,.308.277.308,3.853.308,1.6,0,3.33,0,4.192-.032.74-.03,1.018-.37,1.018-.864,0-.894-1.081-3.206-4.225-3.206" transform="translate(40.548 3.581)" fill="#fafafa"/>
    <path id="Trazado_8" data-name="Trazado 8" d="M123.859,12.625c-.493,0-.493.061-.493.431,0,1.171-.092,4.346-.092,6.627,0,2.4.063,4.039,2.467,4.039.277,0,.556-.032.864-.062h.124a.761.761,0,0,1,.74.8c0,.8-.738.956-1.974.956-3.944,0-3.946-3.359-3.946-4.714,0-1.974.059-5.735.059-7.246v-.493c0-.308-.091-.339-.307-.339h-1.819a.818.818,0,1,1,0-1.633h1.788c.277,0,.339-.03.337-.307,0-.124.032-1.6.032-2.683v-.77a.9.9,0,1,1,1.789.061c0,.894-.062,3.36-.062,3.36,0,.339.063.339.464.339h2.742a.818.818,0,1,1,0,1.633Z" transform="translate(44.744 2.39)" fill="#fafafa"/>
    <path id="Trazado_9" data-name="Trazado 9" d="M134.416,24.228a7.009,7.009,0,0,1-7.248-7.274c0-4.315,3.051-7.553,6.934-7.554a7.11,7.11,0,0,1,3.486.924c.062.032.092.062.154.062.091,0,.123-.186.153-.339.032-.37.4-.523.74-.523a.8.8,0,0,1,.9.77v.062c-.032.647-.032,1.109-.032,1.6,0,.461,0,.956.032,1.664v.062a.8.8,0,0,1-.894.771.814.814,0,0,1-.862-.74c-.032-.647.059-1.019-.309-1.45A4.058,4.058,0,0,0,134.32,11c-3.022,0-5.364,2.406-5.363,5.828,0,2.805,1.819,5.733,5.366,5.732a4.853,4.853,0,0,0,3.946-1.789.97.97,0,0,1,.8-.461.988.988,0,0,1,.987.956c0,.894-2.311,2.96-5.64,2.96" transform="translate(47.969 3.546)" fill="#fafafa"/>
    <path id="Trazado_10" data-name="Trazado 10" d="M153.645,25.982c-.8-.03-1.6-.062-2.4-.062-.771,0-1.511.032-2.219.062a.8.8,0,0,1-.925-.8.846.846,0,0,1,.892-.862h.032c.4,0,.431.03.923.029a.478.478,0,0,0,.494-.523c0-1.018.03-2.188.029-3.329,0-1.6-.03-3.053-.062-3.639-.154-2.557-1.786-3.637-3.545-3.636a4.5,4.5,0,0,0-4.592,4.039c0,.585-.03,1.511-.03,2.619,0,1.14.032,2.5.032,3.946a.471.471,0,0,0,.523.525,7.585,7.585,0,0,0,.864-.032.836.836,0,1,1,.033,1.665h-.032c-.8-.03-1.633-.061-2.4-.061s-1.541.03-2.252.062a.8.8,0,0,1-.924-.8.848.848,0,0,1,.894-.864H139c.4,0,.494.03.987.03a.462.462,0,0,0,.493-.523c.032-2.5.061-6.382.059-10.081,0-2.621-.032-5.118-.032-6.966,0-.8-.247-1.233-1.049-1.264a5.824,5.824,0,0,0-.678.032h-.03a.841.841,0,0,1-.862-.864c0-.525.245-.924,1.57-.924a6.634,6.634,0,0,1,.773.061,2.149,2.149,0,0,1,2.095,2.343V7.92c0,2.5-.028,5.271-.028,5.7,0,.094.029.156.061.156s.062-.032.124-.094a5.77,5.77,0,0,1,4.561-2.1,4.884,4.884,0,0,1,5.149,4.932c.032,1.295.062,4.84.062,7.274,0,.339.156.555.525.555.463,0,.432-.03.864-.03h.03a.835.835,0,1,1,0,1.665Z" transform="translate(52.013 1.418)" fill="#fafafa"/>
    <path id="Trazado_11" data-name="Trazado 11" d="M44.1,25.27l-9.749-6.615V3.082A3.086,3.086,0,0,0,31.267,0H3.082A3.086,3.086,0,0,0,0,3.082v20.5a3.086,3.086,0,0,0,3.082,3.082H16.393l-5.021,5.053A.765.765,0,1,0,12.457,32.8l4.718-4.749L21.892,32.8a.765.765,0,0,0,1.087-1.078L17.957,26.67H31.267a3.086,3.086,0,0,0,3.082-3.082V20.505l8.89,6.031A.765.765,0,1,0,44.1,25.27M32.82,17.619l-5.229-3.548a.765.765,0,0,0-.858,1.266l6.087,4.13v4.119a1.555,1.555,0,0,1-1.553,1.552H3.082a1.555,1.555,0,0,1-1.553-1.552V3.082A1.555,1.555,0,0,1,3.082,1.529H31.267A1.555,1.555,0,0,1,32.82,3.082Z" transform="translate(0 0)" fill="#fafafa"/>
  </g>
</svg>
