<svg id="Grupo_230" data-name="Grupo 230" xmlns="http://www.w3.org/2000/svg" xmlns:xlink="http://www.w3.org/1999/xlink" width="25.195" height="20.594" viewBox="0 0 25.195 20.594">
  <defs>
    <clipPath id="clip-path">
      <rect id="Rectángulo_2" data-name="Rectángulo 2" width="25.195" height="20.593" fill="#fafafa"/>
    </clipPath>
  </defs>
  <g id="Grupo_3" data-name="Grupo 3" transform="translate(0 0)" clip-path="url(#clip-path)">
    <path id="Trazado_12" data-name="Trazado 12" d="M24.491.552c-.919.332-1.815.65-2.709.979a.766.766,0,0,1-.865-.2,5.184,5.184,0,0,0-8.577,4.663,3.292,3.292,0,0,1,0,.4A14.974,14.974,0,0,1,1.641.946,5.352,5.352,0,0,0,3.182,7.872l-.074.1c-.716-.2-1.43-.4-2.194-.611a5.534,5.534,0,0,0,4.038,5.162H2.75A5.36,5.36,0,0,0,7.6,16.137,10.673,10.673,0,0,1,0,18.3c.2.132.275.185.353.231a14.483,14.483,0,0,0,6.663,2.033,14.105,14.105,0,0,0,8.075-1.77c5.008-2.936,7.423-7.415,7.576-13.165a.921.921,0,0,1,.386-.811,9.288,9.288,0,0,0,2.142-2.31c-.5.168-.934.332-1.374.452s-.9.2-1.354.289a5.986,5.986,0,0,0,2.025-2.7" transform="translate(0 0)" fill="#fafafa"/>
  </g>
</svg>
